# Blender v3.0.1 OBJ File: ''
# www.blender.org
mtllib 8ketv.mtl
o Component#21_002_Mesh.055
v 7.753124 0.020000 -8.268822
v 8.193124 -0.000000 -8.288822
v 7.743124 -0.000000 -8.288822
v 8.193124 0.020000 -8.268822
v 8.193124 0.250000 -8.288822
v 8.193124 0.230000 -8.268822
v 7.743124 0.250000 -8.288822
v 7.753124 0.230000 -8.268822
v 7.753123 0.019999 -5.508822
v 8.193123 -0.000001 -5.488822
v 7.743123 -0.000001 -5.488822
v 8.193123 0.019999 -5.508822
v 8.193123 0.249999 -5.488822
v 8.193123 0.229999 -5.508822
v 7.743123 0.249999 -5.488822
v 7.753123 0.229999 -5.508822
vt -0.021505 0.028284
vt 0.000000 0.000000
vt -0.967742 0.000000
vt -0.967742 0.028284
vt 0.043011 0.020000
vt 0.000000 0.000000
vt 0.000000 0.250000
vt 0.043011 0.230000
vt 0.000000 0.176777
vt -0.021505 0.148492
vt -0.967742 0.148492
vt -0.967742 0.176777
vt -0.021505 0.230000
vt -0.021505 0.020000
vt -0.967742 0.020000
vt -0.967742 0.230000
vt -0.048087 0.230000
vt 0.000000 0.250000
vt -0.048087 0.020000
vt 0.967742 0.000000
vt 0.967742 0.250000
vt -0.021505 0.028284
vt -0.967742 0.028284
vt -0.967742 0.000000
vt 0.000000 0.000000
vt 0.043011 0.020000
vt 0.043011 0.230000
vt 0.000000 0.250000
vt 0.000000 0.000000
vt 0.000000 0.176777
vt -0.967742 0.176777
vt -0.967742 0.148492
vt -0.021505 0.148492
vt -0.021505 0.230000
vt -0.967742 0.230000
vt -0.967742 0.020000
vt -0.021505 0.020000
vt -0.048087 0.230000
vt -0.048087 0.020000
vt 0.000000 0.250000
vt 0.967742 0.000000
vt 0.967742 0.250000
vn 0.0000 -0.7071 0.7071
vn 1.0000 0.0000 0.0000
vn 0.0000 0.7071 0.7071
vn 0.0000 0.0000 1.0000
vn -0.8944 0.0000 0.4472
vn -0.0000 0.0000 -1.0000
vn 0.9428 -0.2357 0.2357
vn -1.0000 0.0000 0.0000
vn -0.9428 0.2357 -0.2357
vn -0.9428 -0.2357 -0.2357
vn 0.9428 0.2357 0.2357
vn 0.0000 -0.0003 1.0000
vn -0.0003 0.0000 1.0000
vn 0.0000 0.0003 1.0000
vn 0.0003 -0.0000 1.0000
vn -0.7752 -0.5963 0.2087
vn -0.7752 0.5963 0.2087
vn -0.2982 -0.5963 -0.7453
vn -0.2982 0.5963 -0.7453
usemtl Material_#2147458536.002
s 1
f 1/1/1 3/2/1 2/3/1 4/4/1
f 4/5/2 2/6/2 5/7/2 6/8/2
f 7/9/3 8/10/3 6/11/3 5/12/3
f 8/13/4 1/14/4 4/15/4 6/16/4
f 8/17/5 7/18/5 3/2/5 1/19/5
f 2/20/6 3/2/6 7/18/6 5/21/6
f 9/22/7 12/23/8 10/24/2 11/25/9
f 12/26/2 14/27/2 13/28/2 10/29/2
f 15/30/10 13/31/2 14/32/8 16/33/11
f 16/34/12 14/35/13 12/36/14 9/37/15
f 16/38/16 9/39/17 11/25/18 15/40/19
f 10/41/6 13/42/6 15/40/6 11/25/6
o Component#22_003_Mesh.056
v 7.753123 0.230000 -8.268824
v 7.753123 0.020000 -7.808824
v 7.753123 0.230000 -7.808824
v 7.753123 0.020000 -8.268824
v 7.773123 0.230000 -8.268824
v 7.773123 0.020000 -8.268824
v 7.773123 0.230000 -7.808824
v 7.773123 0.020000 -7.808824
v 7.753123 0.230000 -7.808824
v 7.753123 0.020000 -7.348824
v 7.753123 0.230000 -7.348824
v 7.753123 0.020000 -7.808824
v 7.773123 0.230000 -7.808824
v 7.773123 0.020000 -7.808824
v 7.773123 0.230000 -7.348824
v 7.773123 0.020000 -7.348824
v 7.753123 0.230000 -7.348824
v 7.753123 0.020000 -6.888824
v 7.753123 0.230000 -6.888824
v 7.753123 0.020000 -7.348824
v 7.773123 0.230000 -7.348824
v 7.773123 0.020000 -7.348824
v 7.773123 0.230000 -6.888824
v 7.773123 0.020000 -6.888824
v 7.753123 0.230000 -6.888824
v 7.753123 0.020000 -6.428823
v 7.753123 0.230000 -6.428823
v 7.753123 0.020000 -6.888824
v 7.773123 0.230000 -6.888824
v 7.773123 0.020000 -6.888824
v 7.773123 0.230000 -6.428823
v 7.773123 0.020000 -6.428823
v 7.753123 0.230000 -6.428823
v 7.753123 0.020000 -5.968823
v 7.753123 0.230000 -5.968823
v 7.753123 0.020000 -6.428823
v 7.773123 0.230000 -6.428823
v 7.773123 0.020000 -6.428823
v 7.773123 0.230000 -5.968823
v 7.773123 0.020000 -5.968823
v 7.753123 0.230000 -5.968823
v 7.753123 0.020000 -5.508823
v 7.753123 0.230000 -5.508823
v 7.753123 0.020000 -5.968823
v 7.773123 0.230000 -5.968823
v 7.773123 0.020000 -5.968823
v 7.773123 0.230000 -5.508823
v 7.773123 0.020000 -5.508823
vt 0.160000 2.106667
vt 0.370000 2.106667
vt 0.370000 2.566667
vt 0.160000 2.566666
vt 0.725000 0.630000
vt 0.725000 0.840000
vt 0.705000 0.840000
vt 0.705000 0.630000
vt 0.725001 2.566666
vt 0.705001 2.566666
vt 0.705000 2.106667
vt 0.725000 2.106667
vt 0.275000 2.106667
vt 0.295000 2.106667
vt 0.294999 2.566667
vt 0.274999 2.566667
vt 0.630000 2.106667
vt 0.840000 2.106667
vt 0.840000 2.566666
vt 0.630000 2.566667
vt 0.294999 0.840000
vt 0.274999 0.840000
vt 0.274999 0.630000
vt 0.294999 0.630000
vt 0.160000 2.566666
vt 0.370000 2.566666
vt 0.370000 3.026666
vt 0.160000 3.026666
vt 0.725001 0.630000
vt 0.725001 0.840000
vt 0.705001 0.840000
vt 0.705001 0.630000
vt 0.725001 3.026666
vt 0.705001 3.026666
vt 0.705001 2.566666
vt 0.725001 2.566666
vt 0.274999 2.566666
vt 0.294999 2.566666
vt 0.294999 3.026666
vt 0.274999 3.026666
vt 0.630000 2.566666
vt 0.840000 2.566666
vt 0.840000 3.026666
vt 0.630000 3.026666
vt 0.294999 0.840000
vt 0.274999 0.840000
vt 0.274999 0.630000
vt 0.294999 0.630000
vt 0.160000 3.026666
vt 0.370000 3.026666
vt 0.370000 3.486666
vt 0.160000 3.486666
vt 0.725001 0.630000
vt 0.725001 0.840000
vt 0.705001 0.840000
vt 0.705001 0.630000
vt 0.725001 3.486666
vt 0.705001 3.486666
vt 0.705001 3.026666
vt 0.725001 3.026666
vt 0.274999 3.026666
vt 0.294999 3.026666
vt 0.294999 3.486666
vt 0.274999 3.486666
vt 0.630000 3.026666
vt 0.840000 3.026666
vt 0.840000 3.486666
vt 0.630000 3.486666
vt 0.294999 0.840000
vt 0.274999 0.840000
vt 0.274999 0.630000
vt 0.294999 0.630000
vt 0.160000 3.486666
vt 0.370000 3.486666
vt 0.370000 3.946666
vt 0.160000 3.946666
vt 0.725001 0.630000
vt 0.725001 0.840000
vt 0.705001 0.840000
vt 0.705001 0.630000
vt 0.725001 3.946666
vt 0.705001 3.946666
vt 0.705001 3.486666
vt 0.725001 3.486666
vt 0.274999 3.486666
vt 0.294999 3.486666
vt 0.294999 3.946666
vt 0.274999 3.946666
vt 0.630000 3.486666
vt 0.840000 3.486666
vt 0.840000 3.946666
vt 0.630000 3.946666
vt 0.294999 0.840000
vt 0.274999 0.840000
vt 0.274999 0.630000
vt 0.294999 0.630000
vt 0.160000 3.946667
vt 0.370000 3.946667
vt 0.370000 4.406667
vt 0.160000 4.406667
vt 0.725001 0.630000
vt 0.725001 0.840000
vt 0.705001 0.840000
vt 0.705001 0.630000
vt 0.725001 4.406667
vt 0.705001 4.406667
vt 0.705001 3.946667
vt 0.725001 3.946667
vt 0.274999 3.946667
vt 0.294999 3.946667
vt 0.294999 4.406667
vt 0.274999 4.406667
vt 0.630000 3.946667
vt 0.840000 3.946667
vt 0.840000 4.406667
vt 0.630000 4.406667
vt 0.294999 0.840000
vt 0.274999 0.840000
vt 0.274999 0.630000
vt 0.294999 0.630000
vt 0.160000 4.406666
vt 0.370000 4.406666
vt 0.370000 4.866666
vt 0.160000 4.866666
vt 0.725001 0.630000
vt 0.725001 0.840000
vt 0.705001 0.840000
vt 0.705001 0.630000
vt 0.725001 4.866666
vt 0.705001 4.866666
vt 0.705001 4.406666
vt 0.725001 4.406666
vt 0.274999 4.406666
vt 0.294999 4.406666
vt 0.294999 4.866666
vt 0.274999 4.866666
vt 0.630000 4.406666
vt 0.840000 4.406666
vt 0.840000 4.866666
vt 0.630000 4.866666
vt 0.294999 0.840000
vt 0.274999 0.840000
vt 0.274999 0.630000
vt 0.294999 0.630000
vn -1.0000 0.0000 0.0000
vn 0.0000 0.0000 -1.0000
vn 0.0000 1.0000 -0.0000
vn 0.0000 -1.0000 0.0000
vn 1.0000 0.0000 0.0000
vn 0.0000 0.0000 1.0000
usemtl Material_#2147458536.002
s 1
f 17/43/20 20/44/20 18/45/20 19/46/20
f 20/47/21 17/48/21 21/49/21 22/50/21
f 19/51/22 23/52/22 21/53/22 17/54/22
f 20/55/23 22/56/23 24/57/23 18/58/23
f 22/59/24 21/60/24 23/61/24 24/62/24
f 23/63/25 19/64/25 18/65/25 24/66/25
f 25/67/20 28/68/20 26/69/20 27/70/20
f 28/71/21 25/72/21 29/73/21 30/74/21
f 27/75/22 31/76/22 29/77/22 25/78/22
f 28/79/23 30/80/23 32/81/23 26/82/23
f 30/83/24 29/84/24 31/85/24 32/86/24
f 31/87/25 27/88/25 26/89/25 32/90/25
f 33/91/20 36/92/20 34/93/20 35/94/20
f 36/95/21 33/96/21 37/97/21 38/98/21
f 35/99/22 39/100/22 37/101/22 33/102/22
f 36/103/23 38/104/23 40/105/23 34/106/23
f 38/107/24 37/108/24 39/109/24 40/110/24
f 39/111/25 35/112/25 34/113/25 40/114/25
f 41/115/20 44/116/20 42/117/20 43/118/20
f 44/119/21 41/120/21 45/121/21 46/122/21
f 43/123/22 47/124/22 45/125/22 41/126/22
f 44/127/23 46/128/23 48/129/23 42/130/23
f 46/131/24 45/132/24 47/133/24 48/134/24
f 47/135/25 43/136/25 42/137/25 48/138/25
f 49/139/20 52/140/20 50/141/20 51/142/20
f 52/143/21 49/144/21 53/145/21 54/146/21
f 51/147/22 55/148/22 53/149/22 49/150/22
f 52/151/23 54/152/23 56/153/23 50/154/23
f 54/155/24 53/156/24 55/157/24 56/158/24
f 55/159/25 51/160/25 50/161/25 56/162/25
f 57/163/20 60/164/20 58/165/20 59/166/20
f 60/167/21 57/168/21 61/169/21 62/170/21
f 59/171/22 63/172/22 61/173/22 57/174/22
f 60/175/23 62/176/23 64/177/23 58/178/23
f 62/179/24 61/180/24 63/181/24 64/182/24
f 63/183/25 59/184/25 58/185/25 64/186/25
o Component#20_002_Mesh.057
v 7.743124 0.250000 -8.288824
v 8.193124 0.230000 -8.268824
v 7.753124 0.230000 -8.268824
v 8.193124 0.250000 -8.288824
v 8.193124 0.250000 -5.488824
v 7.753124 0.230000 -5.508824
v 8.193124 0.230000 -5.508824
v 7.743124 0.250000 -5.488824
v 7.743124 -0.000000 -8.288824
v 8.193124 0.020000 -8.268824
v 7.753124 0.020000 -8.268824
v 8.193124 -0.000000 -8.288824
v 8.193124 0.000000 -5.488824
v 7.753124 0.020000 -5.508824
v 8.193124 0.020000 -5.508824
v 7.743124 0.000000 -5.488824
v 8.153123 0.000000 -5.528823
v 7.783123 -0.050000 -5.528823
v 8.153123 -0.050000 -5.528823
v 7.783123 0.000000 -5.528823
v 7.783123 -0.000000 -8.248823
v 8.153123 -0.050000 -8.248823
v 7.783123 -0.050000 -8.248823
v 8.153123 -0.000000 -8.248823
v 8.193124 0.230000 -5.508823
v 7.773124 0.020000 -5.508823
v 8.193124 0.020000 -5.508823
v 7.773124 0.230000 -5.508823
v 7.773124 0.230000 -8.268824
v 8.193124 0.020000 -8.268824
v 7.773124 0.020000 -8.268824
v 8.193124 0.230000 -8.268824
v 7.773124 0.230000 -5.968823
v 7.773124 0.230000 -6.428823
v 7.773124 0.230000 -6.888824
v 7.773124 0.230000 -7.348823
v 7.773124 0.230000 -7.808824
v 7.773124 0.020000 -7.808824
v 7.773124 0.020000 -7.348823
v 7.773124 0.020000 -6.888824
v 7.773124 0.020000 -6.428823
v 7.773124 0.020000 -5.968823
vt 0.725000 1.900000
vt 0.275000 1.900000
vt 0.275000 1.880000
vt 0.715000 1.880000
vt 0.275001 -0.900000
vt 0.725000 -0.900000
vt 0.715000 -0.880000
vt 0.275001 -0.880000
vt 0.650000 1.900000
vt 0.630000 1.880000
vt 0.630000 -0.880000
vt 0.650000 -0.900000
vt 0.724999 -0.900000
vt 0.725000 1.900000
vt 0.275000 1.900000
vt 0.275000 -0.900000
vt 0.370000 -0.880000
vt 0.370000 1.880000
vt 0.350000 1.900000
vt 0.350000 -0.900000
vt 0.275000 1.900000
vt 0.285000 1.880000
vt 0.725000 1.880000
vt 0.725000 1.900000
vt 0.725000 -0.900000
vt 0.725000 -0.880000
vt 0.285000 -0.880000
vt 0.275000 -0.900000
vt 0.400000 1.900000
vt 0.400000 -0.900000
vt 0.420000 -0.880000
vt 0.420000 1.880000
vt 0.275000 -0.900000
vt 0.725000 -0.900000
vt 0.725000 1.900000
vt 0.275000 1.900000
vt 0.580000 -0.880000
vt 0.600000 -0.900000
vt 0.600000 1.900000
vt 0.580000 1.880000
vt 0.315001 0.600000
vt 0.685001 0.600000
vt 0.685001 0.650000
vt 0.315001 0.650000
vt 0.314999 0.600000
vt 0.684999 0.600000
vt 0.684999 0.650000
vt 0.314999 0.650000
vt 0.650000 1.859999
vt 0.600000 1.859999
vt 0.600000 -0.860000
vt 0.650000 -0.860000
vt 0.400000 1.859999
vt 0.350000 1.859999
vt 0.350000 -0.860000
vt 0.400000 -0.860000
vt 0.684999 -0.860000
vt 0.684999 1.859999
vt 0.314999 1.859999
vt 0.314999 -0.860000
vt 0.685001 1.859999
vt 0.315001 1.859999
vt 0.315001 -0.860000
vt 0.685001 -0.860000
vt 0.275000 0.370000
vt 0.695000 0.370000
vt 0.695000 0.580000
vt 0.275000 0.580000
vt 0.305000 0.370000
vt 0.725000 0.370000
vt 0.725000 0.580000
vt 0.305000 0.580000
vt 0.580000 1.879999
vt 0.370000 1.879999
vt 0.370000 -0.880000
vt 0.580000 -0.880000
vt 0.725000 -0.880000
vt 0.725000 1.879999
vt 0.305000 1.879999
vt 0.305000 1.420000
vt 0.305000 0.959999
vt 0.305000 0.500000
vt 0.305000 0.040000
vt 0.305000 -0.420000
vt 0.305000 -0.880000
vt 0.630000 1.879999
vt 0.420000 1.879999
vt 0.420000 1.420000
vt 0.630000 1.420000
vt 0.275000 1.879999
vt 0.275000 -0.880000
vt 0.695000 -0.880000
vt 0.695000 -0.420000
vt 0.695000 0.040000
vt 0.695000 0.500000
vt 0.695000 0.959999
vt 0.695000 1.420000
vt 0.695000 1.879999
vt 0.420000 0.959999
vt 0.630000 0.959999
vt 0.420000 0.500000
vt 0.630000 0.500000
vt 0.420000 0.040000
vt 0.630000 0.040000
vt 0.420000 -0.420000
vt 0.630000 -0.420000
vt 0.420000 -0.880000
vt 0.630000 -0.880000
vn 0.0000 -0.7071 -0.7071
vn 0.0000 -0.7071 0.7071
vn -0.8944 -0.4472 0.0000
vn 0.0000 -1.0000 0.0000
vn 0.0000 1.0000 -0.0000
vn 1.0000 0.0000 0.0000
vn -0.0001 -0.7071 -0.7071
vn -0.0001 -0.7071 0.7071
vn -0.8945 -0.4472 -0.0000
vn -0.0000 1.0000 -0.0003
vn 0.0003 1.0000 -0.0000
vn -0.0000 1.0000 0.0003
vn -0.0003 1.0000 -0.0000
vn 0.0000 0.0000 1.0000
vn 0.0000 0.0000 -1.0000
vn -1.0000 0.0000 0.0000
usemtl Material_#2147458536.002
s 1
f 65/187/26 68/188/26 66/189/26 67/190/26
f 69/191/27 72/192/27 70/193/27 71/194/27
f 65/195/28 67/196/28 70/197/28 72/198/28
f 66/189/29 71/194/29 70/193/29 67/190/29
f 69/199/30 68/200/30 65/201/30 72/202/30
f 71/203/31 66/204/31 68/205/31 69/206/31
f 73/207/32 75/208/26 74/209/26 76/210/26
f 77/211/27 79/212/27 78/213/27 80/214/33
f 73/215/34 80/216/28 78/217/28 75/218/28
f 74/209/29 75/208/29 78/213/29 79/212/29
f 77/219/35 80/220/36 73/221/37 76/222/38
f 79/223/31 77/224/31 76/225/31 74/226/31
f 81/227/39 84/228/39 82/229/39 83/230/39
f 85/231/40 88/232/40 86/233/40 87/234/40
f 86/235/31 88/236/31 81/237/31 83/238/31
f 85/239/41 87/240/41 82/241/41 84/242/41
f 81/243/30 88/244/30 85/245/30 84/246/30
f 87/247/29 86/248/29 83/249/29 82/250/29
f 89/251/39 92/252/39 90/253/39 91/254/39
f 93/255/40 96/256/40 94/257/40 95/258/40
f 94/259/31 96/260/31 89/261/31 91/262/31
f 89/263/30 96/264/30 93/265/30 101/266/30 100/267/30 99/268/30 98/269/30 97/270/30 92/271/30
f 93/272/41 95/273/41 102/274/41 101/275/41
f 94/276/29 91/277/29 90/278/29 106/279/29 105/280/29 104/281/29 103/282/29 102/283/29 95/284/29
f 101/275/41 102/274/41 103/285/41 100/286/41
f 100/286/41 103/285/41 104/287/41 99/288/41
f 99/288/41 104/287/41 105/289/41 98/290/41
f 98/290/41 105/289/41 106/291/41 97/292/41
f 97/292/41 106/291/41 90/293/41 92/294/41
